<svg width="23" height="20" viewBox="0 0 23 20" fill="none" xmlns="http://www.w3.org/2000/svg">
<path d="M20.4587 1.44255C17.8791 -0.726502 13.8935 -0.400698 11.4255 2.11201C8.95739 -0.400698 4.97187 -0.730966 2.39221 1.44255C-0.964018 4.26767 -0.47308 8.87356 1.91913 11.3149L9.74735 19.2904C10.1937 19.7456 10.7917 20 11.4255 20C12.0637 20 12.6573 19.7501 13.1036 19.2948L20.9318 11.3193C23.3196 8.87803 23.8194 4.27214 20.4587 1.44255ZM19.4054 9.81081L11.5772 17.7863C11.4701 17.8934 11.3808 17.8934 11.2737 17.7863L3.4455 9.81081C1.81647 8.15055 1.48621 5.00854 3.7713 3.08496C5.50743 1.62554 8.18528 1.84423 9.86339 3.55358L11.4255 5.1469L12.9875 3.55358C14.6746 1.8353 17.3524 1.62554 19.0796 3.0805C21.3603 5.00408 21.0211 8.16393 19.4054 9.81081Z" fill="white"/>
</svg>
