<svg width="27" height="20" viewBox="0 0 27 20" fill="none" xmlns="http://www.w3.org/2000/svg">
<path d="M24.1667 0H2.5C1.11927 0 0 1.11927 0 2.5V17.5C0 18.8807 1.11927 20 2.5 20H24.1667C25.5474 20 26.6667 18.8807 26.6667 17.5V2.5C26.6667 1.11927 25.5474 0 24.1667 0ZM24.1667 2.5V4.62526C22.9989 5.57625 21.1371 7.055 17.1569 10.1716C16.2798 10.8616 14.5423 12.5191 13.3333 12.4998C12.1246 12.5193 10.3865 10.8613 9.50974 10.1716C5.53021 7.05547 3.66797 5.57641 2.5 4.62526V2.5H24.1667ZM2.5 17.5V7.83323C3.69344 8.7838 5.38589 10.1177 7.96552 12.1377C9.10391 13.0338 11.0975 15.012 13.3333 14.9999C15.5582 15.012 17.5265 13.0625 18.7007 12.1381C21.2803 10.1182 22.9732 8.78391 24.1667 7.83328V17.5H2.5Z" fill="white"/>
</svg>
